<svg width="15" height="14" viewBox="0 0 15 14" fill="none" xmlns="http://www.w3.org/2000/svg">
<path d="M13.3333 4.40416C13.3333 4.78916 13.0183 5.10416 12.6333 5.10416H2.36663C1.98163 5.10416 1.66663 4.78916 1.66663 4.40416V4.39833C1.66663 3.0625 2.74579 1.98333 4.08163 1.98333H10.9125C12.2483 1.98333 13.3333 3.06833 13.3333 4.40416Z" fill="#1E1E1E"/>
<path d="M1.66663 6.67916V9.60166C1.66663 10.9375 2.74579 12.0167 4.08163 12.0167H10.9125C12.2483 12.0167 13.3333 10.9317 13.3333 9.59583V6.67916C13.3333 6.29416 13.0183 5.97916 12.6333 5.97916H2.36663C1.98163 5.97916 1.66663 6.29416 1.66663 6.67916ZM5.16663 10.0625H3.99996C3.76079 10.0625 3.56246 9.86416 3.56246 9.625C3.56246 9.38583 3.76079 9.1875 3.99996 9.1875H5.16663C5.40579 9.1875 5.60413 9.38583 5.60413 9.625C5.60413 9.86416 5.40579 10.0625 5.16663 10.0625ZM8.95829 10.0625H6.62496C6.38579 10.0625 6.18746 9.86416 6.18746 9.625C6.18746 9.38583 6.38579 9.1875 6.62496 9.1875H8.95829C9.19746 9.1875 9.39579 9.38583 9.39579 9.625C9.39579 9.86416 9.19746 10.0625 8.95829 10.0625Z" fill="#1E1E1E"/>
</svg>
