<svg width="8" height="11" viewBox="0 0 8 11" fill="none" xmlns="http://www.w3.org/2000/svg">
<path fill-rule="evenodd" clip-rule="evenodd" d="M6.27576 3.56101V2.00101C6.27603 1.59347 6.11047 1.20336 5.81715 0.920421C5.52384 0.63748 5.12802 0.486067 4.72076 0.50101H3.08076C2.67349 0.486067 2.27767 0.63748 1.98436 0.920421C1.69104 1.20336 1.52548 1.59347 1.52576 2.00101V3.56101C0.491348 3.92731 -0.137816 4.97592 0.025756 6.06101L0.500756 8.94601C0.729084 10.1059 1.75895 10.9331 2.94076 10.906H4.88076C6.06256 10.9331 7.09243 10.1059 7.32076 8.94601L7.79576 6.06101C7.95689 4.97044 7.31812 3.91985 6.27576 3.56101ZM4.40076 7.46601L4.50576 7.77601C4.55179 7.9179 4.52774 8.07322 4.44094 8.19454C4.35415 8.31586 4.21491 8.38877 4.06576 8.39101H3.69576C3.5466 8.38877 3.40737 8.31586 3.32057 8.19454C3.23377 8.07322 3.20972 7.9179 3.25576 7.77601L3.36076 7.46601C3.41737 7.29088 3.37319 7.09881 3.24576 6.96601C2.96243 6.6294 2.99099 6.13019 3.31087 5.82809C3.63074 5.526 4.13077 5.526 4.45064 5.82809C4.77052 6.13019 4.79908 6.6294 4.51576 6.96601C4.38832 7.09881 4.34414 7.29088 4.40076 7.46601ZM2.27576 3.39101H2.45576V3.39601H5.52576V2.00101C5.50683 1.57483 5.14703 1.24408 4.72076 1.26101H3.08076C2.65449 1.24408 2.29469 1.57483 2.27576 2.00101V3.39101Z" fill="#222357"/>
</svg>
