<svg width="24" height="19" viewBox="0 0 24 19" fill="none" xmlns="http://www.w3.org/2000/svg">
<g clip-path="url(#clip0_20_1118)">
<path d="M4.45908 18.9056V17.648C4.45908 17.1659 4.1829 16.8516 3.70951 16.8516C3.47286 16.8516 3.21645 16.9354 3.03892 17.2079C2.90092 16.9773 2.70371 16.8516 2.40786 16.8516C2.21056 16.8516 2.01344 16.9144 1.85559 17.145V16.8935H1.44141V18.9056H1.85559V17.7947C1.85559 17.4385 2.03312 17.2707 2.3093 17.2707C2.5853 17.2707 2.72348 17.4594 2.72348 17.7947V18.9056H3.13766V17.7947C3.13766 17.4385 3.33477 17.2707 3.59119 17.2707C3.86737 17.2707 4.00537 17.4594 4.00537 17.7947V18.9056H4.45908ZM10.5928 16.8935H9.9223V16.2857H9.50812V16.8935H9.13338V17.2916H9.50803V18.2139C9.50803 18.6751 9.68556 18.9475 10.1589 18.9475C10.3365 18.9475 10.5336 18.8847 10.6718 18.8008L10.5534 18.4235C10.435 18.5073 10.297 18.5283 10.1984 18.5283C10.0012 18.5283 9.9223 18.4026 9.9223 18.1929V17.2916H10.5928V16.8935ZM14.1035 16.8515C13.8669 16.8515 13.7091 16.9773 13.6105 17.145V16.8935H13.1963V18.9056H13.6105V17.7738C13.6105 17.4385 13.7485 17.2498 14.0049 17.2498C14.0838 17.2498 14.1824 17.2708 14.2613 17.2917L14.3796 16.8726C14.3007 16.8516 14.1824 16.8516 14.1035 16.8516V16.8515ZM8.79808 17.0611C8.60078 16.9144 8.3247 16.8516 8.02884 16.8516C7.55554 16.8516 7.24001 17.1031 7.24001 17.5013C7.24001 17.8367 7.47666 18.0253 7.89084 18.0882L8.08805 18.1092C8.30502 18.151 8.42334 18.2139 8.42334 18.3188C8.42334 18.4654 8.26558 18.5703 7.9894 18.5703C7.71331 18.5703 7.49634 18.4654 7.35825 18.3607L7.16104 18.696C7.37801 18.8637 7.67387 18.9475 7.96963 18.9475C8.5219 18.9475 8.83752 18.6751 8.83752 18.2978C8.83752 17.9414 8.58111 17.7528 8.1866 17.69L7.9894 17.669C7.81187 17.648 7.67387 17.6061 7.67387 17.4804C7.67387 17.3336 7.81187 17.2498 8.02884 17.2498C8.26558 17.2498 8.50223 17.3545 8.62055 17.4175L8.79808 17.0611ZM19.8035 16.8516C19.5668 16.8516 19.409 16.9773 19.3103 17.145V16.8935H18.8962V18.9056H19.3103V17.7738C19.3103 17.4385 19.4484 17.2498 19.7048 17.2498C19.7837 17.2498 19.8824 17.2708 19.9613 17.2917L20.0796 16.8726C20.0007 16.8516 19.8824 16.8516 19.8035 16.8516ZM14.5177 17.8995C14.5177 18.5073 14.9121 18.9475 15.5236 18.9475C15.7997 18.9475 15.9969 18.8847 16.1941 18.717L15.9969 18.3607C15.8391 18.4864 15.6814 18.5493 15.5038 18.5493C15.1685 18.5493 14.9319 18.2978 14.9319 17.8995C14.9319 17.5223 15.1685 17.2707 15.5038 17.2498C15.6814 17.2498 15.8391 17.3126 15.9969 17.4385L16.1941 17.0822C15.9969 16.9144 15.7997 16.8516 15.5236 16.8516C14.9121 16.8516 14.5177 17.2917 14.5177 17.8995ZM18.344 17.8995V16.8935H17.9298V17.145C17.7917 16.9564 17.5945 16.8516 17.3381 16.8516C16.8056 16.8516 16.3914 17.2917 16.3914 17.8995C16.3914 18.5073 16.8056 18.9475 17.3381 18.9475C17.6142 18.9475 17.8115 18.8428 17.9298 18.6541V18.9056H18.344V17.8995ZM16.8253 17.8995C16.8253 17.5432 17.0422 17.2498 17.3972 17.2498C17.7325 17.2498 17.9692 17.5223 17.9692 17.8995C17.9692 18.2559 17.7325 18.5493 17.3972 18.5493C17.0422 18.5283 16.8253 18.2559 16.8253 17.8995ZM11.8749 16.8516C11.3226 16.8516 10.9281 17.2707 10.9281 17.8995C10.9281 18.5283 11.3225 18.9475 11.8945 18.9475C12.1706 18.9475 12.4468 18.8637 12.6638 18.6751L12.4665 18.3607C12.3087 18.4864 12.1115 18.5703 11.9143 18.5703C11.6579 18.5703 11.4015 18.4445 11.3423 18.0881H12.7427V17.9205C12.7624 17.2707 12.4075 16.8516 11.8749 16.8516ZM11.8749 17.2288C12.1312 17.2288 12.3088 17.3966 12.3482 17.711H11.362C11.4015 17.4385 11.579 17.2288 11.8749 17.2288ZM22.1505 17.8995V16.097H21.7363V17.145C21.5982 16.9564 21.401 16.8516 21.1446 16.8516C20.6121 16.8516 20.1979 17.2917 20.1979 17.8995C20.1979 18.5073 20.6121 18.9475 21.1446 18.9475C21.4208 18.9475 21.618 18.8428 21.7363 18.6541V18.9056H22.1505V17.8995ZM20.6319 17.8995C20.6319 17.5432 20.8487 17.2498 21.2038 17.2498C21.5391 17.2498 21.7757 17.5223 21.7757 17.8995C21.7757 18.2559 21.5391 18.5493 21.2038 18.5493C20.8487 18.5283 20.6319 18.2559 20.6319 17.8995ZM6.7863 17.8995V16.8935H6.37212V17.145C6.23403 16.9564 6.03682 16.8516 5.78041 16.8516C5.24791 16.8516 4.83373 17.2917 4.83373 17.8995C4.83373 18.5073 5.24791 18.9475 5.78041 18.9475C6.05659 18.9475 6.2538 18.8428 6.37212 18.6541V18.9056H6.7863V17.8995ZM5.24791 17.8995C5.24791 17.5432 5.46488 17.2498 5.81985 17.2498C6.15515 17.2498 6.39189 17.5223 6.39189 17.8995C6.39189 18.2559 6.15515 18.5493 5.81985 18.5493C5.46488 18.5283 5.24791 18.2559 5.24791 17.8995Z" fill="black"/>
<path d="M8.65991 1.61386H14.8726V13.477H8.65991V1.61386Z" fill="#FF5F00"/>
<path d="M9.05446 7.54548C9.05446 5.13516 10.1195 2.99723 11.7564 1.61385C10.5534 0.607809 9.03478 0 7.37806 0C3.45306 0 0.27771 3.37446 0.27771 7.54548C0.27771 11.7164 3.45306 15.091 7.37797 15.091C9.03469 15.091 10.5533 14.4832 11.7564 13.477C10.1195 12.1146 9.05446 9.95581 9.05446 7.54548Z" fill="#EB001B"/>
<path d="M23.2548 7.54548C23.2548 11.7164 20.0795 15.091 16.1546 15.091C14.4978 15.091 12.9792 14.4832 11.7761 13.477C13.4328 12.0937 14.4782 9.95581 14.4782 7.54548C14.4782 5.13516 13.4131 2.99723 11.7761 1.61385C12.9791 0.607809 14.4978 0 16.1546 0C20.0795 0 23.2548 3.39546 23.2548 7.54548Z" fill="#F79E1B"/>
</g>
<defs>
<clipPath id="clip0_20_1118">
<rect width="23" height="19" fill="white" transform="translate(0.27771)"/>
</clipPath>
</defs>
</svg>
