<svg width="14" height="15" viewBox="0 0 14 15" fill="none" xmlns="http://www.w3.org/2000/svg">
<path d="M9.47334 1.66666H4.52668C2.91668 1.66666 2.33334 2.25 2.33334 3.88916V11.1108C2.33334 12.75 2.91668 13.3333 4.52668 13.3333H9.46751C11.0833 13.3333 11.6667 12.75 11.6667 11.1108V3.88916C11.6667 2.25 11.0833 1.66666 9.47334 1.66666ZM7.00001 11.7583C6.44001 11.7583 5.97918 11.2975 5.97918 10.7375C5.97918 10.1775 6.44001 9.71666 7.00001 9.71666C7.56001 9.71666 8.02084 10.1775 8.02084 10.7375C8.02084 11.2975 7.56001 11.7583 7.00001 11.7583ZM8.16668 4.14583H5.83334C5.59418 4.14583 5.39584 3.9475 5.39584 3.70833C5.39584 3.46916 5.59418 3.27083 5.83334 3.27083H8.16668C8.40584 3.27083 8.60418 3.46916 8.60418 3.70833C8.60418 3.9475 8.40584 4.14583 8.16668 4.14583Z" fill="#292D32"/>
</svg>
