<svg width="12" height="14" viewBox="0 0 12 14" fill="none" xmlns="http://www.w3.org/2000/svg">
<path d="M10.5 4.1875V9.8125C10.5 12.0625 9.9375 12.625 7.6875 12.625H4.3125C2.0625 12.625 1.5 12.0625 1.5 9.8125V4.1875C1.5 1.9375 2.0625 1.375 4.3125 1.375H7.6875C9.9375 1.375 10.5 1.9375 10.5 4.1875Z" stroke="#616478" stroke-width="0.8" stroke-linecap="round" stroke-linejoin="round"/>
<path d="M7.125 3.34375H4.875" stroke="#616478" stroke-linecap="round" stroke-linejoin="round"/>
<path d="M6.00005 10.9938C6.48157 10.9938 6.87192 10.6034 6.87192 10.1219C6.87192 9.64035 6.48157 9.25 6.00005 9.25C5.51853 9.25 5.12817 9.64035 5.12817 10.1219C5.12817 10.6034 5.51853 10.9938 6.00005 10.9938Z" stroke="#616478" stroke-linecap="round" stroke-linejoin="round"/>
</svg>
