<svg width="25" height="9" viewBox="0 0 25 9" fill="none" xmlns="http://www.w3.org/2000/svg">
<g clip-path="url(#clip0_20_1116)">
<path d="M12.9045 3.16331C12.8911 4.18464 13.8489 4.75455 14.5704 5.09342C15.3116 5.44108 15.5606 5.66404 15.5577 5.97498C15.5521 6.4508 14.9664 6.66081 14.4183 6.66897C13.462 6.68325 12.9059 6.42011 12.4639 6.22109L12.1194 7.77482C12.5629 7.9718 13.3841 8.14358 14.2357 8.15112C16.2347 8.15112 17.5425 7.20003 17.5496 5.72542C17.5574 3.85392 14.8639 3.75033 14.8823 2.91383C14.8886 2.66018 15.1397 2.3895 15.69 2.32068C15.9623 2.28591 16.7142 2.25931 17.5666 2.63765L17.9012 1.13439C17.4427 0.973508 16.8536 0.819457 16.12 0.819457C14.2385 0.819457 12.9152 1.7835 12.9045 3.16331ZM21.1159 0.948941C20.7509 0.948941 20.4433 1.15417 20.306 1.4691L17.4506 8.04071H19.4481L19.8456 6.98186H22.2865L22.5171 8.04071H24.2777L22.7414 0.948941H21.1159ZM21.3954 2.86469L21.9719 5.52773H20.3931L21.3954 2.86469ZM10.4826 0.94903L8.90809 8.04062H10.8116L12.3854 0.948853H10.4826M7.66673 0.948853L5.68549 5.77588L4.88405 1.67166C4.79001 1.2135 4.41864 0.948941 4.00624 0.948941H0.767531L0.722168 1.15487C1.38706 1.29394 2.14249 1.51823 2.60017 1.75822C2.88026 1.90482 2.96013 2.03298 3.05214 2.38134L4.5701 8.04071H6.58161L9.66555 0.948941L7.66673 0.948853Z" fill="url(#paint0_linear_20_1116)"/>
</g>
<defs>
<linearGradient id="paint0_linear_20_1116" x1="1083.67" y1="22.8584" x2="1104.12" y2="-730.157" gradientUnits="userSpaceOnUse">
<stop stop-color="#222357"/>
<stop offset="1" stop-color="#254AA5"/>
</linearGradient>
<clipPath id="clip0_20_1116">
<rect width="23.5556" height="7.36111" fill="white" transform="translate(0.722168 0.819458)"/>
</clipPath>
</defs>
</svg>
